<?xml version="1.0" encoding="utf-8"?>
<!-- Generator: Adobe Illustrator 27.5.0, SVG Export Plug-In . SVG Version: 6.00 Build 0)  -->
<svg version="1.1" xmlns="http://www.w3.org/2000/svg" xmlns:xlink="http://www.w3.org/1999/xlink" x="0px" y="0px"
	 viewBox="0 0 1122 1122" style="enable-background:new 0 0 1122 1122;" xml:space="preserve">
<g id="Bg">
	<rect style="fill:#FFFFFF;" width="1122" height="1122"/>
</g>
<g id="Object">
	<g>
		<g>
			<polygon style="fill:#F3D632;" points="563.593,398.978 572.13,399.062 572.126,399.546 563.589,399.478 			"/>
			<polygon style="fill:#F3D632;" points="586.361,399.544 594.884,400.039 594.859,400.482 586.335,400.001 			"/>
			
				<rect x="613.085" y="397.61" transform="matrix(0.1062 -0.9943 0.9943 0.1062 148.5643 969.0317)" style="fill:#F3D632;" width="0.422" height="8.537"/>
			<polygon style="fill:#F3D632;" points="631.68,403.986 640.112,405.323 640.037,405.789 631.609,404.435 			"/>
			<polygon style="fill:#F3D632;" points="654.113,407.928 662.464,409.701 662.347,410.245 654.008,408.418 			"/>
			<polygon style="fill:#F3D632;" points="676.311,413.048 684.547,415.295 684.356,415.983 676.137,413.679 			"/>
			<polygon style="fill:#F3D632;" points="698.176,419.464 706.256,422.217 705.973,423.041 697.912,420.232 			"/>
			<polygon style="fill:#F3D632;" points="719.594,427.265 727.468,430.564 727.067,431.51 719.216,428.158 			"/>
			<polygon style="fill:#F3D632;" points="740.423,436.548 748.027,440.43 747.456,441.534 739.891,437.578 			"/>
			<polygon style="fill:#F3D632;" points="760.463,447.46 767.695,451.996 766.911,453.233 759.723,448.627 			"/>
			<polygon style="fill:#F3D632;" points="779.422,460.192 786.144,465.454 785.098,466.778 778.427,461.45 			"/>
			<polygon style="fill:#F3D632;" points="796.882,474.955 802.883,481.027 801.535,482.349 795.58,476.232 			"/>
			<polygon style="fill:#F3D632;" points="812.202,491.972 817.189,498.902 815.516,500.095 810.581,493.129 			"/>
			<path style="fill:#F3D632;" d="M824.497,511.313c0,0,0.931,1.921,1.862,3.842c0.867,1.986,1.735,3.973,1.735,3.973l-2.058,0.841
				c0,0-0.827-1.933-1.653-3.865c-0.917-1.928-1.834-3.856-1.834-3.856L824.497,511.313z"/>
			<path style="fill:#F3D632;" d="M832.637,532.8c0,0,0.479,2.08,0.957,4.16c0.391,2.139,0.783,4.278,0.783,4.278l-2.362,0.367
				c0,0-0.361-2.063-0.721-4.125c-0.463-2.083-0.926-4.167-0.926-4.167L832.637,532.8z"/>
			<path style="fill:#F3D632;" d="M835.539,555.623c0,0-0.044,2.133-0.09,4.266c-0.146,2.173-0.293,4.345-0.293,4.345L832.634,564
				c0,0,0.15-2.085,0.301-4.169c0.054-2.133,0.109-4.267,0.109-4.267L835.539,555.623z"/>
			<path style="fill:#F3D632;" d="M832.751,578.472c0,0-0.559,2.06-1.117,4.119c-0.66,2.073-1.32,4.147-1.32,4.147l-2.489-0.859
				c0,0,0.643-1.99,1.288-3.979c0.568-2.056,1.135-4.112,1.135-4.112L832.751,578.472z"/>
			<path style="fill:#F3D632;" d="M824.713,600.03c0,0-0.993,1.889-1.986,3.777c-1.08,1.884-2.16,3.767-2.16,3.767l-2.343-1.408
				c0,0,1.051-1.813,2.103-3.627c1.001-1.884,2.002-3.769,2.002-3.769L824.713,600.03z"/>
			<polygon style="fill:#F3D632;" points="812.478,619.505 807.109,626.141 804.91,624.355 810.308,617.743 			"/>
			<polygon style="fill:#F3D632;" points="797.216,636.644 790.954,642.442 788.966,640.286 795.253,634.516 			"/>
			<polygon style="fill:#F3D632;" points="779.814,651.56 772.917,656.589 771.135,654.135 778.055,649.137 			"/>
			<polygon style="fill:#F3D632;" points="760.89,664.46 753.535,668.795 751.95,666.092 759.323,661.79 			"/>
			<polygon style="fill:#F3D632;" points="740.862,675.546 733.173,679.253 731.776,676.338 739.48,672.666 			"/>
			<polygon style="fill:#F3D632;" points="720.026,684.991 712.086,688.126 710.869,685.024 718.822,681.924 			"/>
			<polygon style="fill:#F3D632;" points="698.58,692.939 690.451,695.545 689.41,692.275 697.551,689.705 			"/>
			<polygon style="fill:#F3D632;" points="676.675,699.501 668.406,701.613 667.539,698.189 675.818,696.114 			"/>
			<polygon style="fill:#F3D632;" points="654.43,704.763 646.054,706.408 645.361,702.843 653.744,701.234 			"/>
			<polygon style="fill:#F3D632;" points="631.929,708.792 623.477,709.992 622.961,706.295 631.418,705.133 			"/>
			<polygon style="fill:#F3D632;" points="609.249,711.641 600.749,712.41 600.412,708.593 608.915,707.861 			"/>
			<polygon style="fill:#F3D632;" points="586.459,713.348 577.929,713.7 577.776,709.771 586.306,709.457 			"/>
			<polygon style="fill:#F3D632;" points="563.626,713.946 555.071,713.894 555.108,709.854 563.626,709.952 			"/>
			<polygon style="fill:#F3D632;" points="540.751,713.463 532.227,713 532.465,708.839 540.986,709.349 			"/>
			<polygon style="fill:#F3D632;" points="517.939,711.868 509.448,710.983 509.905,706.713 518.391,707.646 			"/>
			<polygon style="fill:#F3D632;" points="495.228,709.131 486.794,707.81 487.49,703.444 495.917,704.813 			"/>
			<polygon style="fill:#F3D632;" points="472.682,705.21 464.332,703.435 465.29,698.99 473.63,700.811 			"/>
			<polygon style="fill:#F3D632;" points="450.375,700.052 442.141,697.799 443.387,693.295 451.609,695.593 			"/>
			<polygon style="fill:#F3D632;" points="428.397,693.586 420.318,690.828 421.882,686.29 429.946,689.094 			"/>
			<polygon style="fill:#F3D632;" points="406.859,685.726 398.987,682.422 400.906,677.885 408.76,681.232 			"/>
			<polygon style="fill:#F3D632;" points="385.914,676.341 378.322,672.436 380.62,667.987 388.199,671.916 			"/>
			<polygon style="fill:#F3D632;" points="365.766,665.286 358.547,660.728 361.268,656.435 368.472,661.017 			"/>
			<polygon style="fill:#F3D632;" points="346.695,652.388 339.989,647.106 343.187,643.06 349.876,648.365 			"/>
			<polygon style="fill:#F3D632;" points="329.121,637.428 323.148,631.328 326.847,627.701 332.833,633.787 			"/>
			<polygon style="fill:#F3D632;" points="313.717,620.149 308.762,613.197 312.936,610.218 317.907,617.158 			"/>
			<path style="fill:#F3D632;" d="M301.379,600.531c0,0-0.922-1.925-1.844-3.85c-0.877-2.029-1.753-4.058-1.753-4.058l4.699-1.921
				c0,0,0.819,1.888,1.638,3.776c0.927,1.923,1.853,3.846,1.853,3.846L301.379,600.531z"/>
			<path style="fill:#F3D632;" d="M293.23,578.711c0,0-0.469-2.082-0.939-4.164c-0.39-2.185-0.781-4.37-0.781-4.37l4.964-0.774
				c0,0,0.363,2.016,0.726,4.032c0.474,2.081,0.948,4.162,0.948,4.162L293.23,578.711z"/>
			<path style="fill:#F3D632;" d="M290.395,555.617c0,0,0.058-2.162,0.115-4.324c0.161-2.213,0.321-4.427,0.321-4.427l4.905,0.455
				c0,0-0.134,2.044-0.268,4.087c-0.021,1.066-0.041,2.133-0.056,2.933c-0.008,0.4-0.014,0.734-0.019,0.967
				c-0.002,0.117-0.004,0.208-0.005,0.271l-0.001,0.042v0.016v0.007v0.003c0.001-0.116,0-0.032,0.001-0.058v0.001v0.001v0.002v0.024
				L290.395,555.617z"/>
			<path style="fill:#F3D632;" d="M293.353,532.444c0,0,0.57-2.056,1.141-4.112c0.683-2.103,1.364-4.207,1.364-4.207l4.492,1.547
				c0,0-0.621,1.96-1.242,3.92c-0.554,2.06-1.109,4.12-1.109,4.12L293.353,532.444z"/>
			<path style="fill:#F3D632;" d="M301.595,510.723c0,0,1.005-1.882,2.011-3.764c1.107-1.897,2.215-3.794,2.215-3.794l3.897,2.339
				c0,0-1.022,1.801-2.045,3.602c-0.987,1.891-1.974,3.783-1.974,3.783L301.595,510.723z"/>
			<polygon style="fill:#F3D632;" points="314.075,491.204 319.499,484.613 322.804,487.295 317.464,493.954 			"/>
			<polygon style="fill:#F3D632;" points="329.543,474.123 335.866,468.392 338.53,471.277 332.306,477.118 			"/>
			<polygon style="fill:#F3D632;" points="347.142,459.361 354.093,454.408 356.165,457.259 349.303,462.336 			"/>
			<polygon style="fill:#F3D632;" points="366.22,446.657 373.621,442.403 375.202,445.096 367.877,449.48 			"/>
			<polygon style="fill:#F3D632;" points="386.361,435.791 394.09,432.168 395.266,434.622 387.603,438.38 			"/>
			<polygon style="fill:#F3D632;" points="407.276,426.579 415.249,423.53 416.1,425.697 408.181,428.883 			"/>
			<polygon style="fill:#F3D632;" points="428.77,418.872 436.927,416.353 437.515,418.199 429.402,420.858 			"/>
			<polygon style="fill:#F3D632;" points="450.697,412.558 458.989,410.534 459.368,412.032 451.112,414.198 			"/>
			<polygon style="fill:#F3D632;" points="472.939,407.545 481.328,405.966 481.558,407.15 473.188,408.826 			"/>
			<polygon style="fill:#F3D632;" points="495.405,403.704 503.866,402.572 503.997,403.504 495.549,404.735 			"/>
			<polygon style="fill:#F3D632;" points="518.034,401.036 526.537,400.312 526.602,401.044 518.103,401.823 			"/>
			<polygon style="fill:#F3D632;" points="540.755,399.454 549.286,399.148 549.308,399.737 540.78,400.098 			"/>
			<polygon style="fill:#F3D632;" points="889.973,555.596 889.763,564.206 889.144,564.189 889.403,555.581 			"/>
			<polygon style="fill:#F3D632;" points="888.365,578.535 886.909,587.023 886.17,586.894 887.674,578.415 			"/>
			<polygon style="fill:#F3D632;" points="883.464,601.01 880.825,609.207 879.987,608.934 882.673,600.753 			"/>
			<polygon style="fill:#F3D632;" points="875.504,622.6 871.819,630.383 870.839,629.913 874.605,622.169 			"/>
			<polygon style="fill:#F3D632;" points="864.845,643.006 860.239,650.282 859.122,649.567 863.804,642.339 			"/>
			<polygon style="fill:#F3D632;" points="851.844,662.017 846.475,668.751 845.234,667.748 850.697,661.09 			"/>
			<polygon style="fill:#F3D632;" points="836.92,679.574 830.914,685.746 829.527,684.376 835.628,678.297 			"/>
			<polygon style="fill:#F3D632;" points="820.375,695.626 813.843,701.236 812.356,699.477 818.975,693.969 			"/>
			<polygon style="fill:#F3D632;" points="802.497,710.185 795.529,715.245 793.985,713.084 801.03,708.132 			"/>
			<polygon style="fill:#F3D632;" points="783.518,723.289 776.193,727.818 774.63,725.248 782.024,720.832 			"/>
			<polygon style="fill:#F3D632;" points="763.634,734.99 756.016,739.007 754.468,736.013 762.149,732.118 			"/>
			<polygon style="fill:#F3D632;" points="743.007,745.334 735.146,748.854 733.647,745.436 741.562,742.039 			"/>
			<polygon style="fill:#F3D632;" points="721.765,754.363 713.709,757.404 712.293,753.561 720.396,750.648 			"/>
			<polygon style="fill:#F3D632;" points="700.025,762.119 691.808,764.695 690.508,760.43 698.765,757.985 			"/>
			<polygon style="fill:#F3D632;" points="677.875,768.635 669.524,770.739 668.385,766.104 676.759,764.096 			"/>
			<polygon style="fill:#F3D632;" points="655.391,773.902 646.94,775.563 645.997,770.619 654.466,769.053 			"/>
			<polygon style="fill:#F3D632;" points="632.659,777.99 624.134,779.215 623.409,773.976 631.947,772.842 			"/>
			<polygon style="fill:#F3D632;" points="609.743,780.888 601.167,781.672 600.691,776.245 609.271,775.521 			"/>
			<polygon style="fill:#F3D632;" points="586.711,782.636 578.107,783.002 577.888,777.4 586.496,777.094 			"/>
			<polygon style="fill:#F3D632;" points="563.645,783.269 555.007,783.201 555.057,777.479 563.644,777.564 			"/>
			<polygon style="fill:#F3D632;" points="540.521,782.742 531.921,782.261 532.249,776.5 540.848,776.999 			"/>
			<polygon style="fill:#F3D632;" points="517.471,781.098 508.905,780.196 509.52,774.412 518.084,775.331 			"/>
			<polygon style="fill:#F3D632;" points="494.526,778.318 486.017,776.988 486.928,771.196 495.435,772.544 			"/>
			<polygon style="fill:#F3D632;" points="471.746,774.381 463.316,772.613 464.535,766.83 472.962,768.615 			"/>
			<polygon style="fill:#F3D632;" points="449.196,769.26 440.876,767.029 442.407,761.305 450.729,763.522 			"/>
			<polygon style="fill:#F3D632;" points="426.964,762.878 418.783,760.183 420.608,754.616 428.796,757.286 			"/>
			<polygon style="fill:#F3D632;" points="405.123,755.245 397.113,752.079 399.234,746.69 407.254,749.832 			"/>
			<polygon style="fill:#F3D632;" points="383.766,746.329 375.966,742.676 378.387,737.489 386.198,741.118 			"/>
			<polygon style="fill:#F3D632;" points="363.003,736.086 355.459,731.929 358.183,726.971 365.738,731.106 			"/>
			<polygon style="fill:#F3D632;" points="342.972,724.453 335.747,719.765 338.75,715.112 346,719.761 			"/>
			<polygon style="fill:#F3D632;" points="323.835,711.382 316.992,706.152 320.267,701.843 327.138,707.034 			"/>
			<polygon style="fill:#F3D632;" points="305.779,696.829 299.4,691.043 302.942,687.118 309.353,692.869 			"/>
			<polygon style="fill:#F3D632;" points="289.045,680.753 283.229,674.396 287.028,670.903 292.878,677.228 			"/>
			<polygon style="fill:#F3D632;" points="273.918,663.128 268.786,656.208 272.833,653.195 277.996,660.091 			"/>
			<polygon style="fill:#F3D632;" points="260.737,643.976 256.433,636.515 260.707,634.037 265.046,641.478 			"/>
			<polygon style="fill:#F3D632;" points="249.905,623.385 246.576,615.441 251.033,613.562 254.398,621.491 			"/>
			<polygon style="fill:#F3D632;" points="241.825,601.552 239.61,593.229 244.181,592.001 246.434,600.314 			"/>
			<polygon style="fill:#F3D632;" points="236.853,578.801 235.853,570.247 240.449,569.699 241.488,578.249 			"/>
			<polygon style="fill:#F3D632;" points="235.212,555.637 235.462,546.967 239.991,547.089 239.777,555.637 			"/>
			<polygon style="fill:#F3D632;" points="236.952,532.366 238.447,523.885 242.821,524.647 241.36,533.134 			"/>
			<polygon style="fill:#F3D632;" points="242.015,509.665 244.692,501.48 248.829,502.824 246.185,511.02 			"/>
			<polygon style="fill:#F3D632;" points="250.171,487.909 253.911,480.151 257.752,481.993 254.044,489.765 			"/>
			<polygon style="fill:#F3D632;" points="261.062,467.413 265.719,460.169 269.231,462.417 264.603,469.679 			"/>
			<polygon style="fill:#F3D632;" points="274.283,448.37 279.71,441.682 282.883,444.246 277.482,450.955 			"/>
			<polygon style="fill:#F3D632;" points="289.443,430.863 295.507,424.747 298.347,427.551 292.306,433.69 			"/>
			<polygon style="fill:#F3D632;" points="306.201,414.909 312.786,409.363 315.305,412.34 308.741,417.913 			"/>
			<polygon style="fill:#F3D632;" points="324.262,400.484 331.277,395.491 333.493,398.59 326.498,403.611 			"/>
			<polygon style="fill:#F3D632;" points="343.395,387.538 350.763,383.079 352.695,386.258 345.345,390.746 			"/>
			<polygon style="fill:#F3D632;" points="363.406,376.02 371.063,372.077 372.731,375.301 365.09,379.273 			"/>
			<polygon style="fill:#F3D632;" points="384.136,365.875 392.03,362.43 393.452,365.672 385.571,369.147 			"/>
			<polygon style="fill:#F3D632;" points="405.454,357.054 413.54,354.092 414.732,357.329 406.659,360.323 			"/>
			<polygon style="fill:#F3D632;" points="427.246,349.517 435.488,347.021 436.468,350.235 428.236,352.762 			"/>
			<polygon style="fill:#F3D632;" points="449.423,343.22 457.791,341.179 458.571,344.353 450.212,346.427 			"/>
			<polygon style="fill:#F3D632;" points="471.905,338.13 480.368,336.533 480.964,339.656 472.507,341.286 			"/>
			<polygon style="fill:#F3D632;" points="494.617,334.221 503.151,333.057 503.574,336.117 495.045,337.315 			"/>
			<polygon style="fill:#F3D632;" points="517.494,331.466 526.074,330.728 526.336,333.716 517.76,334.487 			"/>
			<polygon style="fill:#F3D632;" points="540.473,329.843 549.08,329.524 549.193,332.431 540.588,332.784 			"/>
			<polygon style="fill:#F3D632;" points="563.489,329.334 572.114,329.437 572.089,332.234 563.489,332.187 			"/>
			<polygon style="fill:#F3D632;" points="586.526,329.956 595.123,330.473 594.974,333.113 586.372,332.652 			"/>
			<polygon style="fill:#F3D632;" points="609.49,331.69 618.053,332.627 617.79,335.106 609.222,334.225 			"/>
			<polygon style="fill:#F3D632;" points="632.34,334.553 640.844,335.92 640.48,338.233 631.967,336.923 			"/>
			<polygon style="fill:#F3D632;" points="655.013,338.57 663.435,340.373 662.983,342.515 654.549,340.768 			"/>
			<polygon style="fill:#F3D632;" points="677.443,343.762 685.755,346.018 685.232,347.975 676.902,345.786 			"/>
			<polygon style="fill:#F3D632;" points="699.551,350.177 707.725,352.894 707.156,354.628 698.96,351.983 			"/>
			<polygon style="fill:#F3D632;" points="721.259,357.83 729.261,361.018 728.666,362.53 720.637,359.411 			"/>
			<polygon style="fill:#F3D632;" points="742.472,366.753 750.262,370.428 749.661,371.718 741.839,368.111 			"/>
			<polygon style="fill:#F3D632;" points="763.081,376.989 770.613,381.166 770.024,382.239 762.456,378.126 			"/>
			<polygon style="fill:#F3D632;" points="782.96,388.57 790.184,393.26 789.602,394.162 782.349,389.517 			"/>
			<polygon style="fill:#F3D632;" points="801.954,401.547 808.797,406.778 808.233,407.52 801.358,402.332 			"/>
			<polygon style="fill:#F3D632;" points="819.862,415.982 826.24,421.77 825.711,422.356 819.297,416.608 			"/>
			<polygon style="fill:#F3D632;" points="836.445,431.913 842.26,438.271 841.783,438.709 835.929,432.388 			"/>
			<polygon style="fill:#F3D632;" points="851.424,449.358 856.566,456.269 856.122,456.601 850.968,449.698 			"/>
			<polygon style="fill:#F3D632;" points="864.493,468.275 868.81,475.73 868.367,475.987 864.037,468.54 			"/>
			<polygon style="fill:#F3D632;" points="875.234,488.6 878.579,496.537 878.141,496.721 874.787,488.788 			"/>
			<polygon style="fill:#F3D632;" points="883.279,510.133 885.522,518.448 885.029,518.581 882.799,510.261 			"/>
			<polygon style="fill:#F3D632;" points="888.27,532.571 889.299,541.122 888.755,541.188 887.74,532.634 			"/>
			<polygon style="fill:#F3D632;" points="167.392,555.583 167.548,547.056 168.005,547.065 167.819,555.592 			"/>
			<polygon style="fill:#F3D632;" points="168.57,532.85 169.638,524.39 170.169,524.458 169.072,532.915 			"/>
			<polygon style="fill:#F3D632;" points="172.172,510.372 174.132,502.07 174.73,502.211 172.741,510.507 			"/>
			<polygon style="fill:#F3D632;" points="178.124,488.392 180.929,480.336 181.584,480.565 178.75,488.611 			"/>
			<polygon style="fill:#F3D632;" points="186.266,467.12 189.842,459.376 190.601,459.73 186.976,467.451 			"/>
			<polygon style="fill:#F3D632;" points="196.425,446.73 200.708,439.352 201.554,439.848 197.225,447.198 			"/>
			<polygon style="fill:#F3D632;" points="208.408,427.348 213.318,420.372 214.236,421.022 209.282,427.966 			"/>
			<polygon style="fill:#F3D632;" points="221.99,409.043 227.44,402.484 228.464,403.343 222.952,409.85 			"/>
			<polygon style="fill:#F3D632;" points="236.978,391.869 242.911,385.741 244.018,386.823 238.029,392.895 			"/>
			<polygon style="fill:#F3D632;" points="253.201,375.851 259.553,370.159 260.721,371.474 254.317,377.107 			"/>
			<polygon style="fill:#F3D632;" points="270.498,360.992 277.214,355.732 278.422,357.289 271.659,362.487 			"/>
			<polygon style="fill:#F3D632;" points="288.727,347.284 295.755,342.45 296.985,344.255 289.911,349.023 			"/>
			<polygon style="fill:#F3D632;" points="307.76,334.71 315.06,330.295 316.29,332.353 308.949,336.698 			"/>
			<polygon style="fill:#F3D632;" points="327.488,323.25 335.022,319.248 336.238,321.564 328.666,325.493 			"/>
			<polygon style="fill:#F3D632;" points="347.816,312.885 355.549,309.289 356.732,311.864 348.965,315.386 			"/>
			<polygon style="fill:#F3D632;" points="368.659,303.597 376.565,300.398 377.697,303.232 369.76,306.355 			"/>
			<polygon style="fill:#F3D632;" points="389.942,295.365 397.996,292.555 399.058,295.647 390.977,298.379 			"/>
			<polygon style="fill:#F3D632;" points="411.602,288.169 419.78,285.742 420.756,289.089 412.555,291.438 			"/>
			<polygon style="fill:#F3D632;" points="433.584,282.012 441.867,279.973 442.726,283.514 434.428,285.495 			"/>
			<polygon style="fill:#F3D632;" points="455.827,276.87 464.193,275.204 464.923,278.932 456.545,280.541 			"/>
			<polygon style="fill:#F3D632;" points="478.278,272.719 486.71,271.419 487.299,275.332 478.858,276.573 			"/>
			<polygon style="fill:#F3D632;" points="500.892,269.564 509.371,268.638 509.803,272.668 501.32,273.558 			"/>
			<polygon style="fill:#F3D632;" points="523.619,267.387 532.13,266.818 532.398,270.957 523.885,271.49 			"/>
			<polygon style="fill:#F3D632;" points="546.42,266.161 554.948,265.946 555.046,270.188 546.517,270.368 			"/>
			<polygon style="fill:#F3D632;" points="569.255,265.886 577.786,266.033 577.709,270.329 569.18,270.172 			"/>
			<polygon style="fill:#F3D632;" points="592.083,266.574 600.599,267.073 600.344,271.39 591.828,270.88 			"/>
			<polygon style="fill:#F3D632;" points="614.864,268.209 623.352,269.065 622.912,273.395 614.425,272.529 			"/>
			<polygon style="fill:#F3D632;" points="637.557,270.803 646.001,272.021 645.373,276.357 636.931,275.129 			"/>
			<polygon style="fill:#F3D632;" points="660.121,274.371 668.504,275.955 667.682,280.286 659.302,278.692 			"/>
			<polygon style="fill:#F3D632;" points="682.509,278.924 690.813,280.88 689.794,285.198 681.492,283.233 			"/>
			
				<rect x="705.94" y="283.524" transform="matrix(0.2744 -0.9616 0.9616 0.2744 237.1107 889.8099)" style="fill:#F3D632;" width="4.452" height="8.531"/>
			<polygon style="fill:#F3D632;" points="726.553,291.077 734.636,293.805 733.23,297.983 725.142,295.269 			"/>
			<polygon style="fill:#F3D632;" points="748.095,298.713 756.035,301.831 754.443,305.898 746.497,302.794 			"/>
			<polygon style="fill:#F3D632;" points="769.237,307.401 777.01,310.916 775.231,314.86 767.452,311.359 			"/>
			<polygon style="fill:#F3D632;" points="789.912,317.159 797.489,321.078 795.522,324.888 787.938,320.982 			"/>
			<polygon style="fill:#F3D632;" points="810.038,328.011 817.391,332.344 815.237,336.004 807.878,331.684 			"/>
			<polygon style="fill:#F3D632;" points="829.528,339.984 836.613,344.743 834.284,348.22 827.185,343.483 			"/>
			<polygon style="fill:#F3D632;" points="848.273,353.1 855.051,358.287 852.554,361.56 845.761,356.394 			"/>
			<polygon style="fill:#F3D632;" points="866.161,367.373 872.583,372.992 869.922,376.043 863.484,370.442 			"/>
			<polygon style="fill:#F3D632;" points="883.057,382.816 889.069,388.871 886.249,391.679 880.219,385.642 			"/>
			<polygon style="fill:#F3D632;" points="898.808,399.435 904.348,405.924 901.377,408.468 895.817,401.995 			"/>
			<polygon style="fill:#F3D632;" points="913.241,417.223 918.238,424.138 915.127,426.393 910.109,419.493 			"/>
			<polygon style="fill:#F3D632;" points="926.159,436.145 930.539,443.467 927.302,445.409 922.901,438.101 			"/>
			<polygon style="fill:#F3D632;" points="937.356,456.142 941.039,463.836 937.699,465.441 933.992,457.757 			"/>
			<polygon style="fill:#F3D632;" points="946.62,477.109 949.531,485.128 946.114,486.374 943.179,478.363 			"/>
			<polygon style="fill:#F3D632;" points="953.751,498.897 955.823,507.172 952.363,508.044 950.265,499.776 			"/>
			<polygon style="fill:#F3D632;" points="958.581,521.31 959.767,529.758 956.301,530.249 955.091,521.805 			"/>
			<polygon style="fill:#F3D632;" points="961,544.107 961.275,552.634 957.845,552.749 957.545,544.223 			"/>
			<polygon style="fill:#F3D632;" points="960.972,567.028 960.337,575.533 956.97,575.285 957.585,566.779 			"/>
			<polygon style="fill:#F3D632;" points="958.497,589.81 956.957,598.2 953.689,597.604 955.209,589.211 			"/>
			<polygon style="fill:#F3D632;" points="953.614,612.196 951.203,620.378 948.067,619.458 950.459,611.269 			"/>
			<polygon style="fill:#F3D632;" points="946.437,633.945 943.21,641.841 940.233,640.63 943.441,632.726 			"/>
			<polygon style="fill:#F3D632;" points="937.133,654.863 933.163,662.413 930.365,660.945 934.317,653.387 			"/>
			<polygon style="fill:#F3D632;" points="925.904,674.801 921.269,681.962 918.659,680.277 923.278,673.106 			"/>
			<polygon style="fill:#F3D632;" points="912.962,693.661 907.74,700.403 905.325,698.537 910.531,691.783 			"/>
			<polygon style="fill:#F3D632;" points="898.515,711.378 892.779,717.69 890.559,715.677 896.28,709.351 			"/>
			<polygon style="fill:#F3D632;" points="882.756,727.926 876.573,733.801 874.543,731.67 880.712,725.781 			"/>
			<polygon style="fill:#F3D632;" points="865.858,743.297 859.288,748.735 857.443,746.512 864,741.057 			"/>
			<polygon style="fill:#F3D632;" points="847.975,757.496 841.069,762.502 839.401,760.209 846.296,755.185 			"/>
			<polygon style="fill:#F3D632;" points="829.239,770.539 822.043,775.121 820.546,772.776 827.731,768.179 			"/>
			<polygon style="fill:#F3D632;" points="809.766,782.448 802.32,786.612 800.987,784.233 808.422,780.052 			"/>
			<polygon style="fill:#F3D632;" points="789.661,793.243 782,796.997 780.821,794.597 788.473,790.825 			"/>
			<polygon style="fill:#F3D632;" points="769.01,802.945 761.167,806.296 760.136,803.889 767.971,800.519 			"/>
			<polygon style="fill:#F3D632;" points="747.899,811.576 739.899,814.532 739.007,812.128 747,809.152 			"/>
			<polygon style="fill:#F3D632;" points="726.391,819.156 718.257,821.726 717.497,819.332 725.625,816.743 			"/>
			<polygon style="fill:#F3D632;" points="704.548,825.706 696.303,827.896 695.67,825.521 703.909,823.313 			"/>
			<polygon style="fill:#F3D632;" points="682.428,831.243 674.093,833.057 673.579,830.709 681.91,828.876 			"/>
			<polygon style="fill:#F3D632;" points="660.084,835.781 651.677,837.225 651.276,834.911 659.68,833.447 			"/>
			<polygon style="fill:#F3D632;" points="637.564,839.334 629.105,840.413 628.812,838.138 637.269,837.038 			"/>
			<polygon style="fill:#F3D632;" points="614.92,841.917 606.421,842.636 606.23,840.403 614.727,839.664 			"/>
			<polygon style="fill:#F3D632;" points="592.186,843.542 583.663,843.906 583.567,841.722 592.089,841.337 			"/>
			<path style="fill:#F3D632;" d="M569.406,844.221c0,0-2.133,0.009-4.266,0.019c-2.137-0.004-4.274-0.006-4.274-0.006l0.005-2.129
				c0,0,2.129-0.005,4.258-0.009c2.133-0.013,4.265-0.026,4.265-0.026L569.406,844.221z"/>
			<polygon style="fill:#F3D632;" points="546.613,843.952 538.088,843.609 538.166,841.572 546.692,841.882 			"/>
			<polygon style="fill:#F3D632;" points="523.855,842.737 515.352,842.04 515.508,840.099 524.013,840.763 			"/>
			<polygon style="fill:#F3D632;" points="501.168,840.573 492.703,839.515 492.93,837.674 501.399,838.698 			"/>
			<polygon style="fill:#F3D632;" points="478.596,837.446 470.184,836.023 470.475,834.283 478.893,835.671 			"/>
			<polygon style="fill:#F3D632;" points="456.182,833.341 447.841,831.551 448.189,829.914 456.537,831.67 			"/>
			<polygon style="fill:#F3D632;" points="433.973,828.248 425.721,826.083 426.12,824.553 434.381,826.684 			"/>
			<polygon style="fill:#F3D632;" points="412.022,822.146 403.88,819.597 404.316,818.193 412.471,820.7 			"/>
			<polygon style="fill:#F3D632;" points="390.383,815.017 382.373,812.081 382.834,810.813 390.86,813.705 			"/>
			<polygon style="fill:#F3D632;" points="369.117,806.85 361.261,803.523 361.739,802.389 369.611,805.676 			"/>
			<polygon style="fill:#F3D632;" points="348.288,797.629 340.615,793.901 341.097,792.902 348.789,796.59 			"/>
			<polygon style="fill:#F3D632;" points="327.971,787.334 320.509,783.197 320.987,782.331 328.47,786.429 			"/>
			<polygon style="fill:#F3D632;" points="308.25,775.943 301.03,771.392 301.496,770.649 308.735,775.17 			"/>
			<polygon style="fill:#F3D632;" points="289.207,763.447 282.272,758.474 282.732,757.83 289.686,762.777 			"/>
			<polygon style="fill:#F3D632;" points="270.963,749.816 264.358,744.413 264.805,743.865 271.429,749.244 			"/>
			<polygon style="fill:#F3D632;" points="253.642,735.031 247.419,729.194 247.843,728.74 254.088,734.554 			"/>
			<polygon style="fill:#F3D632;" points="237.389,719.085 231.605,712.812 231.999,712.447 237.806,718.7 			"/>
			<polygon style="fill:#F3D632;" points="222.364,701.98 217.087,695.275 217.441,694.995 222.743,701.681 			"/>
			
				<rect x="206.345" y="675.8" transform="matrix(0.8338 -0.5521 0.5521 0.8338 -341.1136 227.065)" style="fill:#F3D632;" width="0.43" height="8.532"/>
			
				<rect x="194.643" y="656.301" transform="matrix(0.8798 -0.4753 0.4753 0.8798 -290.5418 171.9926)" style="fill:#F3D632;" width="0.43" height="8.531"/>
			
				<rect x="184.795" y="635.806" transform="matrix(0.9211 -0.3893 0.3893 0.9211 -234.5643 122.5025)" style="fill:#F3D632;" width="0.429" height="8.531"/>
			
				<rect x="177.003" y="614.446" transform="matrix(0.9556 -0.2947 0.2947 0.9556 -174.453 79.6958)" style="fill:#F3D632;" width="0.429" height="8.531"/>
			
				<rect x="171.443" y="592.401" transform="matrix(0.9811 -0.1932 0.1932 0.9811 -112.07 44.4203)" style="fill:#F3D632;" width="0.429" height="8.531"/>
			
				<rect x="168.247" y="569.893" transform="matrix(0.9962 -0.0874 0.0874 0.9962 -49.5565 16.9283)" style="fill:#F3D632;" width="0.429" height="8.531"/>
		</g>
		<g>
			<path style="fill:#F2F3F3;" d="M299.312,554.203l-192.904-34.95c-1.157-0.21-2.269,0.561-2.479,1.718L83.09,635.992
				c-0.21,1.156,0.561,2.267,1.719,2.477l192.904,34.95c1.156,0.209,2.268-0.561,2.477-1.717l20.839-115.019
				C301.238,555.524,300.468,554.413,299.312,554.203z"/>
			<g>
				<path style="fill:#F3D632;" d="M293.963,623.091L87.248,585.639l12.014-66.312c0.16-0.875,0.996-1.455,1.869-1.296
					l203.552,36.878c0.874,0.158,1.453,0.996,1.295,1.87L293.963,623.091z"/>
			</g>
			<g>
				<path style="fill:#8C388D;" d="M308.486,541.385l-206.174-37.354c-5.801-1.051-11.375,2.814-12.427,8.616L64.202,654.409
					l227.215,41.166L317.1,553.812C318.151,548.012,314.287,542.436,308.486,541.385z M280.19,671.701
					c-0.209,1.156-1.321,1.927-2.477,1.717l-192.904-34.95c-1.158-0.21-1.929-1.321-1.719-2.477l20.839-115.02
					c0.21-1.157,1.322-1.928,2.479-1.718l192.904,34.95c1.156,0.21,1.926,1.321,1.717,2.479L280.19,671.701z"/>
			</g>
			<g>
				
					<rect x="207.618" y="592.609" transform="matrix(0.1783 -0.984 0.984 0.1783 -450.8338 751.0815)" style="fill:#8B2627;" width="33.31" height="105.713"/>
				<path style="fill:#D2D3D2;" d="M274.293,672.688l-106.409-19.279l6.371-35.165l106.408,19.279L274.293,672.688z"/>
			</g>
			<g>
				
					<rect x="115.542" y="593.517" transform="matrix(0.1783 -0.984 0.984 0.1783 -510.0815 646.7736)" style="fill:#8B2627;" width="33.31" height="70.533"/>
				<path style="fill:#D2D3D2;" d="M164.907,652.869l-71.793-13.007l6.371-35.166l71.792,13.008L164.907,652.869z"/>
			</g>
			<g>
				
					<rect x="104.654" y="573.47" transform="matrix(0.1783 -0.984 0.984 0.1783 -481.1591 601.9471)" style="fill:#EDE8CF;" width="30.343" height="31.178"/>
				<path style="fill:#F2F3F3;" d="M137.077,608.838l-36.705-6.65l6.485-35.793l36.706,6.65L137.077,608.838z"/>
			</g>
			<g>
				<path style="fill:#EDE8CF;" d="M205.833,531.172c-0.191,1.051-1.199,1.749-2.25,1.56c-1.051-0.191-1.75-1.199-1.56-2.25
					c0.191-1.052,1.199-1.75,2.251-1.559C205.324,529.114,206.023,530.12,205.833,531.172z"/>
			</g>
			<g>
				<g>
					
						<rect x="224.138" y="590.798" transform="matrix(0.1783 -0.984 0.984 0.1783 -442.8063 746.5179)" style="fill:#64ACAF;" width="2.844" height="95.165"/>
				</g>
				<g>
					
						<rect x="222.883" y="597.721" transform="matrix(0.1783 -0.984 0.984 0.1783 -450.6481 750.9824)" style="fill:#64ACAF;" width="2.845" height="95.166"/>
				</g>
				<g>
					
						<rect x="221.629" y="604.644" transform="matrix(0.1783 -0.984 0.984 0.1783 -458.4918 755.4297)" style="fill:#64ACAF;" width="2.844" height="95.166"/>
				</g>
				<g>
					
						<rect x="132.235" y="592.968" transform="matrix(0.1783 -0.984 0.984 0.1783 -501.9413 642.4067)" style="fill:#64ACAF;" width="2.844" height="57.524"/>
				</g>
				<g>
					
						<rect x="130.979" y="599.892" transform="matrix(0.1783 -0.984 0.984 0.1783 -509.7852 646.8625)" style="fill:#64ACAF;" width="2.846" height="57.524"/>
				</g>
				<g>
					
						<rect x="129.726" y="606.814" transform="matrix(0.1783 -0.984 0.984 0.1783 -517.6276 651.3124)" style="fill:#64ACAF;" width="2.844" height="57.524"/>
				</g>
			</g>
			<path style="fill:#8C388D;" d="M134.237,604.847l-29.806-5.4l5.267-29.064l29.806,5.4L134.237,604.847z"/>
			<path style="fill:#C76A5F;" d="M281.289,631.49l-20.123-3.645l0.921-5.081l20.123,3.646L281.289,631.49z"/>
			<path style="fill:#64ACAF;" d="M258.694,627.396l-20.123-3.646l0.92-5.081l20.123,3.645L258.694,627.396z"/>
			<g>
				<path style="fill:#AEB3B5;" d="M50.202,649.078l-0.987,5.453c-0.948,5.231,2.85,10.316,8.467,11.334l2.684,0.486l231.342,41.914
					l2.686,0.486c5.614,1.017,10.955-2.411,11.902-7.644l0.988-5.452L50.202,649.078z"/>
			</g>
			<path style="fill:#F2F3F3;" d="M149.211,669.195l-0.13,0.717c-0.332,1.837,1.2,3.658,3.419,4.06l50.258,9.107
				c2.217,0.401,4.292-0.766,4.626-2.604l0.13-0.717L149.211,669.195z"/>
		</g>
		<path style="fill:#82C5E3;" d="M1037.524,419.082c0.01-1.183,0.002-2.371-0.086-3.575c-1.66-22.864-20.968-40.096-43.128-38.487
			c-8.287,0.602-15.799,3.755-21.871,8.662c-7.981-18.593-27.477-31.007-49.309-29.424c-27.36,1.986-47.977,25.169-46.045,51.779
			c0.12,1.687,0.333,3.336,0.623,4.959c-22.808,3.603-39.447,24.107-37.747,47.539c1.793,24.719,23.3,43.3,48.038,41.505
			c4.505-0.325,8.799-1.323,12.809-2.854c8.769,12.667,24.079,20.538,40.917,19.316c15.057-1.095,27.845-9.216,35.285-20.788
			c5.558,4.98,12.969,7.785,20.907,7.212c10.761-0.78,19.679-7.572,23.876-16.936c5.322,2.405,11.309,3.561,17.55,3.105
			c19.937-1.446,34.931-18.722,33.491-38.587C1071.477,433.781,1055.995,419.455,1037.524,419.082z"/>
		<path style="fill:#CCE5F7;" d="M833.596,500.669c-0.006-0.583-0.001-1.168,0.042-1.762c0.818-11.267,10.333-19.76,21.254-18.967
			c4.085,0.297,7.786,1.851,10.778,4.269c3.933-9.163,13.541-15.281,24.3-14.501c13.483,0.978,23.644,12.404,22.693,25.518
			c-0.06,0.832-0.165,1.644-0.309,2.443c11.241,1.777,19.441,11.88,18.602,23.429c-0.883,12.181-11.482,21.339-23.673,20.454
			c-2.22-0.16-4.336-0.652-6.312-1.406c-4.322,6.242-11.867,10.121-20.164,9.518c-7.421-0.539-13.723-4.541-17.389-10.244
			c-2.739,2.454-6.392,3.836-10.303,3.553c-5.304-0.384-9.698-3.731-11.767-8.346c-2.623,1.185-5.573,1.755-8.649,1.53
			c-9.825-0.713-17.214-9.227-16.504-19.016C816.864,507.912,824.494,500.853,833.596,500.669z"/>
		
			<ellipse transform="matrix(0.4332 -0.9013 0.9013 0.4332 158.4015 869.0762)" style="fill:#C64D2C;" cx="770.172" cy="308.599" rx="49.422" ry="49.422"/>
		<path style="fill:#5EA2BF;" d="M294.306,377.757c0,19.16-15.531,34.692-34.691,34.692s-34.692-15.532-34.692-34.692
			c0-19.16,15.532-34.692,34.692-34.692S294.306,358.597,294.306,377.757z"/>
		
			<ellipse transform="matrix(0.1452 -0.9894 0.9894 0.1452 -405.0385 1005.5798)" style="fill:#989898;" cx="379.451" cy="737.202" rx="41.92" ry="41.92"/>
		
			<ellipse transform="matrix(0.8944 -0.4472 0.4472 0.8944 -199.3361 490.8459)" style="fill:#8C388D;" cx="939.961" cy="667.624" rx="55.963" ry="55.963"/>
		<g>
			<g>
				<path style="fill:#F3D632;" d="M785.045,315.123c1.297-2.673,1.89-5.73,1.553-8.902c-0.956-9.043-9.064-15.599-18.108-14.643
					c-9.044,0.958-15.6,9.064-14.642,18.108c0.319,3.012,1.433,5.746,3.109,8.02c0.013,0.027,0.022,0.056,0.039,0.077
					c5.01,6.768,6.442,8.699,6.894,9.293c0.037,0.048,0.102,0.151,0.178,0.263l0.21,1.025l0.252-0.027
					c0.024,0.011,0.049,0.016,0.068,0.009l0.042-0.02l15.287-1.617l0.044,0.011c0.022,0.003,0.044-0.008,0.066-0.023l0.274-0.029
					l-0.003-1.117c0.037-0.095,0.068-0.177,0.09-0.222C780.707,324.664,781.682,322.523,785.045,315.123z"/>
				<g>
					<path style="fill:#F2F3F3;" d="M783.33,307.94c-0.566,0.06-1.072-0.351-1.131-0.917c-0.697-6.583-6.62-11.373-13.205-10.676
						c-0.565,0.06-1.071-0.35-1.131-0.915c-0.06-0.566,0.35-1.072,0.914-1.132c7.713-0.816,14.651,4.794,15.468,12.507
						C784.305,307.372,783.895,307.879,783.33,307.94z"/>
				</g>
			</g>
			<path style="fill:#272425;" d="M775.054,340.104l-2.826,0.298c-2.3,0.244-4.362-1.423-4.606-3.722l-0.562-5.314
				c-0.031-0.298,0.185-0.565,0.482-0.596l10.077-1.065c0.298-0.033,0.565,0.182,0.596,0.481l0.563,5.315
				C779.021,337.799,777.354,339.861,775.054,340.104z"/>
			<g>
				<path style="fill:#F2F3F3;" d="M770.288,328.669l-0.021,0.001c-0.564,0.06-1.069-0.348-1.129-0.913l-1.549-14.637
					c-0.059-0.564,0.349-1.069,0.912-1.128l0.021-0.003c0.564-0.059,1.069,0.35,1.128,0.914l1.55,14.636
					C771.26,328.104,770.852,328.608,770.288,328.669z"/>
				<path style="fill:#F2F3F3;" d="M774.516,328.221l-0.022,0.001c-0.563,0.061-1.069-0.348-1.129-0.912l-1.549-14.636
					c-0.059-0.563,0.35-1.07,0.913-1.13l0.021-0.002c0.563-0.06,1.069,0.349,1.128,0.913l1.55,14.637
					C775.488,327.656,775.079,328.161,774.516,328.221z"/>
			</g>
			<path style="fill:#696969;" d="M779.732,329.788l-14.238,1.507c-0.919,0.097-1.745-0.569-1.842-1.489l-0.003-0.034
				c-0.098-0.919,0.57-1.745,1.49-1.841l14.238-1.506c0.92-0.098,1.745,0.569,1.842,1.489l0.003,0.034
				C781.32,328.867,780.652,329.691,779.732,329.788z"/>
			<path style="fill:#696969;" d="M780.017,332.474l-14.239,1.508c-0.919,0.096-1.744-0.571-1.842-1.489l-0.003-0.034
				c-0.098-0.92,0.57-1.744,1.489-1.841l14.238-1.506c0.919-0.099,1.745,0.568,1.842,1.488l0.004,0.033
				C781.604,331.552,780.937,332.378,780.017,332.474z"/>
			<path style="fill:#696969;" d="M780.301,335.161l-14.239,1.507c-0.919,0.097-1.744-0.57-1.841-1.488l-0.003-0.034
				c-0.098-0.92,0.57-1.746,1.49-1.842l14.238-1.507c0.919-0.098,1.745,0.569,1.842,1.489l0.003,0.035
				C781.888,334.239,781.22,335.063,780.301,335.161z"/>
			<g>
				<path style="fill:#F2F3F3;" d="M745.277,288.23c-0.207-0.159-0.489-0.231-0.774-0.201c-0.295,0.031-0.554,0.164-0.734,0.372
					c-0.181,0.21-0.264,0.473-0.236,0.74c0.029,0.269,0.164,0.509,0.385,0.677l6.481,4.951c0.442,0.339,1.135,0.27,1.509-0.17
					c0.181-0.212,0.264-0.474,0.235-0.742c-0.029-0.268-0.164-0.508-0.384-0.675L745.277,288.23z"/>
				<path style="fill:#F2F3F3;" d="M766.741,276.464c-0.583,0.062-1.01,0.561-0.953,1.113l0.834,7.883
					c0.059,0.554,0.582,0.953,1.164,0.891l0.019-0.002c0.585-0.061,1.014-0.562,0.955-1.115l-0.834-7.883
					C767.868,276.799,767.336,276.401,766.741,276.464z"/>
				<path style="fill:#F2F3F3;" d="M786.571,290.942l5.302-6.198c0.18-0.21,0.264-0.474,0.235-0.741
					c-0.029-0.274-0.166-0.51-0.397-0.684c-0.206-0.159-0.488-0.231-0.779-0.2c-0.29,0.03-0.553,0.16-0.72,0.357l-5.302,6.197
					c-0.18,0.209-0.263,0.472-0.235,0.741c0.029,0.272,0.166,0.51,0.397,0.685C785.513,291.435,786.214,291.357,786.571,290.942z"/>
				<path style="fill:#F2F3F3;" d="M802.882,304.052l-8.333,0.882c-0.586,0.062-1.011,0.57-0.951,1.133
					c0.058,0.552,0.58,0.95,1.164,0.889l8.333-0.882c0.583-0.062,1.008-0.569,0.949-1.131
					C803.986,304.391,803.465,303.991,802.882,304.052z"/>
				<path style="fill:#F2F3F3;" d="M754.44,325.78c-0.29,0.031-0.553,0.161-0.723,0.359l-5.3,6.196
					c-0.371,0.434-0.298,1.074,0.163,1.427c0.44,0.334,1.138,0.262,1.498-0.159l5.3-6.197c0.181-0.212,0.265-0.474,0.236-0.742
					c-0.029-0.272-0.166-0.508-0.398-0.684C755.009,325.821,754.728,325.75,754.44,325.78z"/>
				<path style="fill:#F2F3F3;" d="M746.693,311.011c-0.058-0.552-0.581-0.952-1.165-0.891l-8.331,0.882
					c-0.584,0.062-1.01,0.57-0.951,1.133c0.059,0.552,0.582,0.951,1.165,0.889l8.33-0.881
					C746.326,312.081,746.752,311.574,746.693,311.011z"/>
				<path style="fill:#F2F3F3;" d="M790.442,322.252c-0.206-0.157-0.49-0.23-0.78-0.199c-0.288,0.031-0.549,0.16-0.715,0.357
					c-0.192,0.224-0.276,0.484-0.248,0.755c0.029,0.268,0.164,0.508,0.384,0.677l6.481,4.95c0.438,0.336,1.139,0.261,1.497-0.158
					c0.377-0.442,0.316-1.083-0.138-1.431L790.442,322.252z"/>
			</g>
		</g>
		<g>
			<path style="fill:#2F2F2F;" d="M349.783,520.55h-12.524v-11.839h36.763v11.839H361.56v66.235h-11.776V520.55z"/>
			<path style="fill:#2F2F2F;" d="M383.491,586.785v-78.136h33.523v11.839h-21.746v21.31h15.89v11.839h-15.89v21.31h21.746v11.839
				H383.491z"/>
			<path style="fill:#2F2F2F;" d="M443.807,587.782c-5.193,0-9.606-1.817-13.241-5.452c-3.635-3.634-5.452-8.027-5.452-13.179
				v-42.62c0-5.192,1.828-9.606,5.483-13.241c3.655-3.634,8.059-5.452,13.21-5.452c5.192,0,9.596,1.829,13.209,5.483
				c3.614,3.656,5.422,8.059,5.422,13.21v8.91h-12.213v-9.159c0-1.87-0.665-3.468-1.994-4.798c-1.33-1.329-2.929-1.994-4.798-1.994
				s-3.458,0.665-4.767,1.994c-1.309,1.33-1.963,2.928-1.963,4.798v42.744c0,1.869,0.654,3.459,1.963,4.767
				c1.309,1.309,2.897,1.963,4.767,1.963s3.468-0.654,4.798-1.963c1.329-1.308,1.994-2.897,1.994-4.767v-10.779h12.213v10.904
				c0,5.193-1.829,9.596-5.483,13.21C453.299,585.975,448.917,587.782,443.807,587.782z"/>
			<path style="fill:#2F2F2F;" d="M483.87,553.699v33.086h-11.776v-78.074h11.776v33.148h14.207v-33.148h11.776v78.074h-11.776
				v-33.086H483.87z"/>
			<path style="fill:#2F2F2F;" d="M533.604,508.649l15.628,52.512v-52.512h11.776v78.136H548.36l-16.201-50.035v50.035h-11.776
				v-78.136H533.604z"/>
			<path style="fill:#2F2F2F;" d="M589.98,507.714c5.192,0,9.605,1.829,13.241,5.483c3.634,3.656,5.452,8.059,5.452,13.21v42.62
				c0,5.193-1.829,9.606-5.483,13.241c-3.656,3.636-8.06,5.452-13.21,5.452c-5.193,0-9.596-1.827-13.21-5.483
				c-3.613-3.655-5.421-8.058-5.421-13.21v-42.62c0-5.192,1.828-9.606,5.483-13.241C580.488,509.532,584.871,507.714,589.98,507.714
				z M596.398,526.158c0-1.87-0.654-3.458-1.963-4.767c-1.309-1.308-2.897-1.962-4.767-1.962c-1.869,0-3.469,0.654-4.798,1.962
				c-1.33,1.309-1.994,2.897-1.994,4.767v42.744c0,1.869,0.664,3.458,1.994,4.767c1.329,1.309,2.929,1.963,4.798,1.963
				c1.869,0,3.458-0.654,4.767-1.963c1.309-1.309,1.963-2.898,1.963-4.767V526.158z"/>
			<path style="fill:#2F2F2F;" d="M651.168,586.785h-32.09v-78.074h11.776v66.359h20.314V586.785z"/>
			<path style="fill:#2F2F2F;" d="M677.897,507.714c5.192,0,9.605,1.829,13.241,5.483c3.634,3.656,5.452,8.059,5.452,13.21v42.62
				c0,5.193-1.829,9.606-5.483,13.241c-3.656,3.636-8.06,5.452-13.21,5.452c-5.193,0-9.596-1.827-13.21-5.483
				c-3.613-3.655-5.421-8.058-5.421-13.21v-42.62c0-5.192,1.828-9.606,5.483-13.241
				C668.405,509.532,672.788,507.714,677.897,507.714z M684.315,526.158c0-1.87-0.654-3.458-1.963-4.767
				c-1.309-1.308-2.897-1.962-4.767-1.962c-1.869,0-3.469,0.654-4.798,1.962c-1.33,1.309-1.994,2.897-1.994,4.767v42.744
				c0,1.869,0.664,3.458,1.994,4.767c1.329,1.309,2.929,1.963,4.798,1.963c1.869,0,3.458-0.654,4.767-1.963s1.963-2.898,1.963-4.767
				V526.158z"/>
			<path style="fill:#2F2F2F;" d="M725.439,587.782c-5.193,0-9.607-1.828-13.241-5.483c-3.635-3.655-5.452-8.038-5.452-13.148
				v-42.62c0-5.192,1.828-9.606,5.483-13.241c3.655-3.634,8.059-5.452,13.21-5.452c5.192,0,9.596,1.829,13.209,5.483
				c3.614,3.656,5.422,8.059,5.422,13.21v8.91h-12.213v-9.159c0-1.87-0.665-3.468-1.994-4.798c-1.33-1.329-2.929-1.994-4.798-1.994
				c-1.869,0-3.458,0.665-4.767,1.994c-1.309,1.33-1.963,2.928-1.963,4.798v42.744c0,1.869,0.654,3.459,1.963,4.767
				c1.309,1.309,2.898,1.963,4.767,1.963c1.869,0,3.468-0.652,4.798-1.957c1.329-1.305,1.994-2.89,1.994-4.754v-15.347h-6.543
				V541.86h18.756v27.292c0,5.193-1.829,9.596-5.483,13.21C734.931,585.975,730.549,587.782,725.439,587.782z"/>
			<path style="fill:#2F2F2F;" d="M764.757,554.073l-15.765-45.424h12.961l8.723,28.039l8.661-28.039h13.023l-15.827,45.424v32.712
				h-11.776V554.073z"/>
		</g>
		<path style="fill:#F2F3F3;" d="M976.039,657.646c-0.464-1.975-1.078-3.895-1.852-5.733l5.227-5.592
			c-1.451-2.891-3.198-5.587-5.221-8.06l-7.254,2.5c-1.376-1.48-2.872-2.812-4.465-4.04l1.727-7.467
			c-2.661-1.76-5.521-3.24-8.538-4.374l-5.033,5.775c-1.906-0.577-3.873-0.999-5.896-1.235l-2.232-7.346
			c-1.586-0.095-3.185-0.095-4.799-0.017c-1.62,0.073-3.214,0.262-4.773,0.504l-1.481,7.507c-1.977,0.487-3.897,1.105-5.737,1.854
			l-5.603-5.216c-2.873,1.454-5.563,3.206-8.039,5.207l2.481,7.267c-1.47,1.37-2.814,2.866-4.027,4.452l-7.47-1.713
			c-1.756,2.679-3.228,5.529-4.37,8.531l5.765,5.041c-0.58,1.914-0.984,3.869-1.244,5.9l-7.344,2.216
			c-0.083,1.59-0.089,3.19-0.005,4.808c0.084,1.618,0.245,3.217,0.509,4.772l7.52,1.491c0.464,1.969,1.084,3.899,1.85,5.749
			l-5.239,5.595c1.454,2.867,3.204,5.553,5.221,8.026l7.253-2.473c1.388,1.457,2.875,2.802,4.479,4.028l-1.741,7.474
			c2.674,1.752,5.533,3.212,8.537,4.369l5.033-5.776c1.91,0.577,3.886,0.981,5.904,1.261l2.24,7.325
			c1.575,0.095,3.186,0.104,4.794,0.016c1.625-0.084,3.217-0.272,4.776-0.509l1.48-7.523c1.981-0.46,3.895-1.084,5.74-1.842
			l5.59,5.206c2.877-1.428,5.589-3.177,8.049-5.209l-2.478-7.247c1.465-1.378,2.815-2.865,4.038-4.452l7.46,1.711
			c1.748-2.658,3.223-5.524,4.366-8.521l-5.762-5.051c0.568-1.892,0.981-3.886,1.255-5.897l7.321-2.229
			c0.093-1.591,0.098-3.196,0.016-4.804c-0.083-1.615-0.256-3.216-0.498-4.773L976.039,657.646z M955.856,666.159
			c0.462,9.214-6.612,17.047-15.816,17.534c-9.208,0.467-17.047-6.618-17.514-15.83c-0.477-9.205,6.601-17.044,15.805-17.499
			C947.534,649.865,955.377,656.976,955.856,666.159z"/>
		<path style="fill:#A7C54A;" d="M796.504,648.216c0,6.885-5.581,12.466-12.466,12.466c-6.885,0-12.467-5.582-12.467-12.466
			c0-6.885,5.582-12.466,12.467-12.466C790.923,635.749,796.504,641.331,796.504,648.216z"/>
		<path style="fill:#EBBB3B;" d="M337.129,487.002c0,8.242-6.681,14.923-14.923,14.923c-8.242,0-14.923-6.681-14.923-14.923
			c0-8.242,6.681-14.923,14.923-14.923C330.448,472.08,337.129,478.761,337.129,487.002z"/>
		<circle style="fill:#82C5E3;" cx="539.962" cy="846.469" r="14.923"/>
		<circle style="fill:#EBBB3B;" cx="633.322" cy="339.138" r="14.923"/>
		<g>
			<path style="fill:none;" d="M837.3,696.327c-0.015-0.022-0.028-0.044-0.043-0.066c-0.028-0.039-0.05-0.081-0.078-0.121
				c0.025,0.042,0.05,0.084,0.079,0.124C837.272,696.284,837.286,696.306,837.3,696.327z"/>
			<path style="fill:none;" d="M672.183,820.002c-0.146-0.188-0.292-0.381-0.438-0.571c11.073,14.602,18.886,18.304,21.905,19.225
				C690.669,837.742,683.026,834.122,672.183,820.002z"/>
			<path style="fill:none;" d="M657.464,789.408L657.464,789.408c0-0.006,0-0.013,0-0.019h0
				C657.464,789.396,657.464,789.402,657.464,789.408z"/>
			<path style="fill:#60A3C0;" d="M694.026,838.701c0.11,0.299,0.194,0.605,0.313,0.9c1.983,14.604-3.139,36.288-6.395,45.567
				c-3.912,11.162,12.975,9.433,37.822-12.946c20.803-18.738,23.132-46.26,23.343-54.745l-35.192,13.562L694.026,838.701z"/>
			<polygon style="fill:#DAB355;" points="657.464,789.389 657.464,789.386 657.464,789.389 			"/>
			<path style="fill:#DAB355;" d="M657.693,789.097c-0.126-0.106-0.272-0.191-0.399-0.298c-13.297-6.4-35.803-8.051-45.704-7.728
				c-11.826,0.385-5.104-15.205,23.694-32.193c9.69-5.716,19.841-8.16,29.048-8.887c-9.215,0.724-19.378,3.167-29.079,8.891
				c-28.799,16.986-35.521,32.577-23.698,32.192c9.909-0.322,32.412,1.329,45.708,7.731c0.126,0.105,0.273,0.19,0.401,0.296
				c-0.137,0.184-0.278,0.368-0.411,0.555l0.21-0.268L657.693,789.097z"/>
			<path style="fill:#AEB3B5;" d="M671.745,819.432c-0.411-0.535-0.823-1.078-1.243-1.654
				c-11.641-15.866-13.022-24.99-13.038-28.354l-0.182,0.229c0.06-0.081,0.121-0.163,0.181-0.245c0-0.006,0-0.012,0-0.019
				c0-0.001,0-0.002,0-0.003l-0.21,0.268c-2.772,3.753-5.615,7.614-8.571,11.61c0,0-1.814,7.644,10.694,24.686
				c12.508,17.044,20.275,17.511,20.275,17.511c4.819-1.658,9.476-3.251,13.998-4.805
				C690.631,837.736,682.818,834.033,671.745,819.432z"/>
			<path style="fill:#60A3C0;" d="M611.59,781.071c9.901-0.323,32.406,1.328,45.704,7.728c0.127,0.107,0.273,0.193,0.399,0.298
				l36.553-46.132c0,0,0.007,0.004,0.012,0.005l0.006-0.008c-5.026-1.424-16.469-4.034-29.932-2.972
				c-9.206,0.727-19.358,3.171-29.048,8.887C606.486,765.866,599.765,781.456,611.59,781.071z"/>
			<path style="fill:#60A3C0;" d="M657.283,789.653l0.182-0.229c0-0.005,0-0.011,0-0.016l0,0
				C657.404,789.49,657.343,789.572,657.283,789.653z"/>
			<path style="fill:#D2D3D2;" d="M837.501,696.635c-0.071-0.102-0.133-0.206-0.202-0.308c-0.014-0.021-0.027-0.042-0.042-0.063
				c-0.029-0.04-0.054-0.083-0.079-0.124c-1.31-1.893-2.261-3.934-2.863-6.039c0.013,0.003,0.024,0.006,0.035,0.008
				c-0.001-0.007-0.003-0.015-0.005-0.019c-9.266-2.124-36.897-6.164-75.488,8.716c-5.517,2.126-11.259,4.638-17.205,7.6
				c-18.826,9.371-33.409,21.368-47.376,36.552c-0.001-0.001-0.003-0.005-0.003-0.005l-0.009,0.009l-0.006,0.008
				c-0.005-0.001-0.012-0.005-0.012-0.005l-36.553,46.132l-0.229,0.289c0,0.001,0,0.002,0,0.003c0,0.006,0,0.013,0,0.019
				c0,0.005,0,0.011,0,0.016c0.015,3.364,1.396,12.487,13.038,28.354c0.419,0.576,0.832,1.119,1.243,1.654
				c0.146,0.19,0.292,0.383,0.438,0.571c10.843,14.12,18.486,17.74,21.467,18.654c0.106-0.034,0.213-0.074,0.32-0.109
				c0.024,0.049,0.035,0.102,0.056,0.153l19.891-7.663l35.192-13.562c0.001-0.03,0-0.057,0.001-0.087
				c18.608-8.755,34.368-19.055,48.923-34.163c9.042-9.386,16.202-18.543,21.877-27.183c16.871-25.681,20.59-46.745,21.399-55.488
				C839.91,699.446,838.615,698.147,837.501,696.635z M797.076,748.061c-8.34,6.111-20.055,4.328-26.168-4.02
				c-6.12-8.332-4.321-20.057,4.015-26.169c1.564-1.148,3.25-2.016,4.994-2.616c7.554-2.611,16.237-0.163,21.215,6.621
				c0.139,0.187,0.218,0.398,0.354,0.591l-0.011,0.008C807.108,730.764,805.217,742.083,797.076,748.061z"/>
			<path style="fill:#C64D2C;" d="M856.793,681.563l0.007-0.006c-0.026-0.055-0.037-0.128-0.072-0.175
				c-0.776-1.054-3.22-1.257-7.085,0.134c-0.373,0.134-0.784,0.303-1.2,0.476c-3.743,1.546-9.114,4.584-14.046,8.106
				c-0.017,0.001-0.034-0.002-0.052-0.008c0.002,0.004,0.004,0.012,0.005,0.019c-0.011-0.002-0.022-0.005-0.035-0.008
				c0.602,2.105,1.553,4.146,2.863,6.039c0.028,0.04,0.05,0.081,0.078,0.121c0.016,0.022,0.029,0.044,0.043,0.066
				c0.068,0.102,0.131,0.207,0.202,0.308c1.114,1.512,2.409,2.811,3.808,3.921c0.01-0.068,0.02-0.155,0.031-0.224
				c5.495-4.104,10.661-9.002,13.105-12.219c0.683-0.902,1.205-1.723,1.607-2.478C857.045,683.764,857.225,682.363,856.793,681.563z
				"/>
			<path style="fill:#C64D2C;" d="M663.995,845.579l-2.194-2.996c0.104,0.145,0.163,0.298,0.183,0.468
				c0.169,2.531,1.06,23.603-16.393,29.574c-0.646,0.223-1.321-0.517-1.066-1.177c1.106-2.897,3.174-8.801,3.065-12.149
				c-0.022-0.769-1.003-1.151-1.453-0.592c-2.588,3.221-10.336,11.274-22.65,10.643c-15.349-0.79-16.053-3.392-16.053-3.392
				s-1.993-1.289,0.962-13.697c0.2-0.826,0.42-1.704,0.658-2.632c3.124-11.927,13.138-16.873,16.993-18.368
				c0.668-0.261,0.604-1.312-0.124-1.568c-3.158-1.113-9.408-0.927-12.507-0.746c-0.702,0.039-1.206-0.826-0.798-1.38
				c10.969-14.829,30.786-7.603,33.145-6.676c0.164,0.063,0.288,0.168,0.395,0.313l-2.193-2.995
				c-0.137-0.186-0.299-0.317-0.518-0.39c-3.18-1.07-29.946-9.296-46.087,11.221c-0.601,0.767,0.028,1.886,0.996,1.784
				c4.281-0.458,12.899-1.149,17.164,0.113c0.985,0.288,1,1.685,0.062,2.081c-5.404,2.26-19.548,9.554-24.678,25.657
				c-6.396,20.06-3.387,21.862-3.384,21.862c0,0,0.786,3.415,21.865,3.381c16.896-0.021,28.13-11.291,31.916-15.758
				c0.661-0.781,1.981-0.338,1.963,0.681c-0.088,4.45-3.351,12.459-5.079,16.394c-0.394,0.895,0.483,1.836,1.393,1.492
				c24.442-9.179,24.694-37.182,24.633-40.534C664.206,845.961,664.129,845.763,663.995,845.579z"/>
			<path style="fill:#EBBB3B;" d="M645.761,820.891c-2.358-0.927-22.175-8.153-33.145,6.676c-0.407,0.555,0.096,1.419,0.798,1.38
				c3.099-0.181,9.349-0.368,12.507,0.746c0.728,0.256,0.792,1.307,0.124,1.568c-3.855,1.495-13.869,6.441-16.993,18.368
				c-0.238,0.928-0.458,1.805-0.658,2.632c-2.955,12.407-0.962,13.697-0.962,13.697s0.704,2.603,16.053,3.392
				c12.314,0.631,20.062-7.422,22.65-10.643c0.45-0.559,1.431-0.177,1.453,0.592c0.11,3.348-1.958,9.252-3.065,12.149
				c-0.255,0.66,0.42,1.4,1.066,1.177c17.453-5.972,16.562-27.044,16.393-29.574c-0.019-0.17-0.079-0.324-0.183-0.468l-7.825-10.686
				l-7.82-10.693C646.049,821.059,645.924,820.954,645.761,820.891z"/>
			<path style="fill:#F2F3F3;" d="M801.486,722.468c-0.137-0.193-0.216-0.404-0.354-0.591c-4.978-6.783-13.661-9.232-21.215-6.621
				c-1.744,0.6-3.43,1.468-4.994,2.616c-8.336,6.112-10.134,17.837-4.015,26.169c6.113,8.348,17.828,10.131,26.168,4.02
				c8.141-5.977,10.032-17.297,4.399-25.585L801.486,722.468z"/>
		</g>
		<g>
			<path style="fill:#F2F3F3;" d="M443.264,363.109l3.391-1.897l9.9-35.353c0.82-2.924,3.857-4.631,6.784-3.815
				c2.926,0.822,4.633,3.858,3.812,6.781L460.2,353.64l1.504-0.841l18.523-10.357c1.997-1.117,2.722-3.647,1.597-5.652
				l-12.094-21.648c-1.118-2.002-3.652-2.719-5.655-1.6l-36.962,20.663c-2.002,1.118-2.718,3.654-1.598,5.657l12.097,21.645
				C438.73,363.511,441.261,364.228,443.264,363.109z"/>
			<path style="fill:#A7C54A;" d="M400.304,336.645l28.046,50.173c1.256,2.235,4.083,3.035,6.324,1.781l71.779-40.133
				c2.244-1.243,3.043-4.077,1.792-6.318l-28.049-50.17c-1.252-2.238-4.081-3.037-6.324-1.787l-71.778,40.137
				C399.851,331.573,399.051,334.405,400.304,336.645z M425.514,339.862c-1.12-2.003-0.404-4.538,1.598-5.657l36.962-20.663
				c2.004-1.119,4.537-0.403,5.655,1.6l12.094,21.648c1.125,2.005,0.4,4.535-1.597,5.652l-18.523,10.357l-1.504,0.841l6.951-24.814
				c0.821-2.923-0.887-5.96-3.812-6.781c-2.927-0.816-5.963,0.891-6.784,3.815l-9.9,35.353l-3.391,1.897
				c-2.003,1.119-4.534,0.402-5.653-1.603L425.514,339.862z M472.499,301.793c1.483-0.835,3.365-0.307,4.2,1.177
				c0.838,1.49,0.312,3.374-1.172,4.207c-1.489,0.839-3.371,0.308-4.209-1.182C470.484,304.51,471.009,302.63,472.499,301.793z
				 M476.648,309.17c1.484-0.834,3.365-0.307,4.201,1.18c0.836,1.488,0.309,3.369-1.175,4.204c-1.489,0.837-3.369,0.31-4.206-1.178
				C474.632,311.889,475.158,310.008,476.648,309.17z"/>
			<path style="fill:#A7C54A;" d="M384.135,343.878l21.695,51.787c0.421,1.018,1.589,1.49,2.602,1.072l10.607-4.447
				c1.013-0.417,1.491-1.589,1.064-2.6l-21.694-51.789c-0.425-1.016-1.59-1.492-2.608-1.07l-10.601,4.448
				C384.191,341.705,383.707,342.865,384.135,343.878z"/>
			<path style="fill:#A7C54A;" d="M405.995,418.612c3.543,8.459,13.306,12.459,21.764,8.914c2.366-0.991,3.479-3.714,2.485-6.077
				c-0.99-2.37-3.711-3.479-6.075-2.488c-3.733,1.563-8.047-0.198-9.608-3.935c-1.568-3.741,0.201-8.052,3.937-9.611
				c3.735-1.568,8.044,0.2,9.61,3.931c0.992,2.366,3.707,3.48,6.077,2.491c2.362-0.99,3.477-3.714,2.483-6.079
				c-3.538-8.46-13.303-12.456-21.759-8.91C406.451,400.394,402.454,410.154,405.995,418.612z"/>
			<path style="fill:#A7C54A;" d="M490.826,280.497l-8.86,7.333c-0.843,0.701-0.965,1.953-0.262,2.801l35.813,43.247
				c0.701,0.842,1.961,0.958,2.801,0.26l8.856-7.334c0.848-0.697,0.964-1.954,0.266-2.799l-35.821-43.243
				C492.924,279.91,491.668,279.797,490.826,280.497z"/>
			<path style="fill:#A7C54A;" d="M542.406,351.51c-1.976,1.631-2.249,4.557-0.611,6.534c1.631,1.975,4.559,2.25,6.531,0.618
				c7.066-5.848,8.052-16.357,2.205-23.417c-5.852-7.062-16.356-8.051-23.417-2.201c-7.058,5.848-8.045,16.354-2.195,23.417
				c1.633,1.972,4.559,2.248,6.533,0.613c1.977-1.637,2.247-4.561,0.614-6.535c-2.583-3.119-2.148-7.761,0.973-10.345
				c3.12-2.583,7.758-2.149,10.34,0.972C545.963,344.288,545.523,348.927,542.406,351.51z"/>
			<path style="fill:#A7C54A;" d="M479.749,402.911c0.956-0.534,1.301-1.745,0.761-2.705l-12.729-22.77
				c-0.538-0.959-1.746-1.302-2.703-0.764l-14.285,7.986c-0.957,0.532-1.298,1.744-0.765,2.703l12.73,22.775
				c0.538,0.955,1.749,1.3,2.708,0.763L479.749,402.911z"/>
			<path style="fill:#A7C54A;" d="M495.761,393.959l14.283-7.983c0.959-0.534,1.302-1.744,0.763-2.706l-12.732-22.771
				c-0.535-0.957-1.744-1.299-2.707-0.763l-14.279,7.979c-0.966,0.539-1.3,1.747-0.766,2.709l12.726,22.771
				C493.587,394.151,494.799,394.501,495.761,393.959z"/>
			<path style="fill:#A7C54A;" d="M460.797,422.645l4.728,8.46c0.836,1.503,2.292,2.288,3.253,1.749l21.993-12.296
				c0.967-0.544,1.064-2.191,0.224-3.689l-4.731-8.46c-0.834-1.5-2.295-2.283-3.253-1.749l-22.003,12.302
				C460.051,419.495,459.955,421.146,460.797,422.645z"/>
			<path style="fill:#A7C54A;" d="M501.607,410.934c0.841,1.495,2.298,2.285,3.257,1.744l21.998-12.296
				c0.96-0.535,1.054-2.188,0.216-3.692l-4.725-8.456c-0.842-1.502-2.299-2.282-3.258-1.747l-21.999,12.298
				c-0.961,0.537-1.057,2.19-0.215,3.693L501.607,410.934z"/>
			<path style="fill:#A7C54A;" d="M382.607,250.542l-1.548,0.864c-0.956,0.537-1.303,1.749-0.764,2.708l4.958,8.876l-9.362,5.233
				l-0.002,0.001l-0.664,0.373c-2.516,1.408-3.413,4.59-2.008,7.106l25.543,45.691c1.406,2.518,4.588,3.418,7.104,2.01
				l61.166-34.198c2.516-1.408,3.417-4.583,2.006-7.104l-25.543-45.692c-1.407-2.516-4.586-3.411-7.102-2.005l-1.914,1.069
				l-8.117,4.534l-4.964-8.874c-0.536-0.959-1.747-1.301-2.706-0.765l-1.546,0.863c-0.956,0.534-1.302,1.749-0.763,2.71l4.96,8.875
				l-31.069,17.364l-4.96-8.868C384.777,250.349,383.561,250.006,382.607,250.542z M392.773,280.34
				c3.249-1.826,7.368-0.675,9.198,2.58c1.829,3.251,0.674,7.371-2.576,9.197c-3.254,1.83-7.372,0.675-9.2-2.576
				C388.365,286.287,389.519,282.171,392.773,280.34z M436.854,255.553c3.255-1.83,7.371-0.678,9.202,2.577
				c1.829,3.251,0.676,7.37-2.58,9.2c-3.252,1.829-7.372,0.676-9.2-2.576C432.446,261.499,433.602,257.382,436.854,255.553z
				 M459.67,269.741l0.946,1.682l-65.957,37.088l-0.945-1.682L459.67,269.741z"/>
			<path style="fill:#AEB3B5;" d="M367.502,294.825c-0.96,0.539-1.306,1.754-0.77,2.709l10.032,17.948
				c0.541,0.959,1.757,1.3,2.709,0.765l6.756-3.776l-12.026-21.387L367.502,294.825z"/>
			<path style="fill:#C64D2C;" d="M376.184,289.974l-1.98,1.111l12.026,21.387l1.932-1.079c0.958-0.539,1.3-1.75,0.761-2.706
				l-10.031-17.948C378.357,289.777,377.143,289.434,376.184,289.974z"/>
			<path style="fill:#AEB3B5;" d="M463.113,241.089l-6.752,3.78l12.026,21.385l6.701-3.742c0.961-0.54,1.304-1.755,0.767-2.71
				l-10.035-17.946C465.288,240.894,464.073,240.553,463.113,241.089z"/>
			<path style="fill:#C64D2C;" d="M454.43,245.944c-0.958,0.539-1.306,1.749-0.766,2.708l10.035,17.952
				c0.535,0.951,1.75,1.298,2.709,0.758l1.979-1.108l-12.026-21.385L454.43,245.944z"/>
			<path style="fill:#5EA2BF;" d="M399.395,292.118c3.25-1.827,4.404-5.946,2.576-9.197c-1.83-3.255-5.949-4.406-9.198-2.58
				c-3.254,1.831-4.408,5.947-2.578,9.202C392.023,292.793,396.141,293.948,399.395,292.118z"/>
			<path style="fill:#5EA2BF;" d="M443.476,267.33c3.256-1.83,4.409-5.949,2.58-9.2c-1.83-3.255-5.946-4.407-9.202-2.577
				c-3.253,1.829-4.409,5.946-2.578,9.201C436.104,268.006,440.224,269.159,443.476,267.33z"/>
			
				<rect x="389.33" y="288.162" transform="matrix(0.8716 -0.4901 0.4901 0.8716 -86.883 246.4796)" style="fill:#5F6062;" width="75.669" height="1.93"/>
			<path style="fill:#C6C6C5;" d="M475.527,307.177c1.485-0.834,2.01-2.718,1.172-4.207c-0.835-1.484-2.717-2.012-4.2-1.177
				c-1.49,0.837-2.016,2.718-1.181,4.203C472.156,307.485,474.038,308.016,475.527,307.177z"/>
			<path style="fill:#C6C6C5;" d="M479.674,314.554c1.484-0.835,2.011-2.716,1.175-4.204c-0.836-1.487-2.717-2.014-4.201-1.18
				c-1.49,0.838-2.016,2.72-1.18,4.206C476.305,314.864,478.185,315.391,479.674,314.554z"/>
		</g>
	</g>
</g>
</svg>
